<svg id="Layer_1" enable-background="new 0 0 512 512" height="512" viewBox="0 0 512 512" width="512" xmlns="http://www.w3.org/2000/svg"><g><g id="XMLID_590_"><g><g id="XMLID_1306_"><g id="XMLID_1307_"><g id="XMLID_1308_"><g id="XMLID_1309_"><g id="XMLID_1310_"><g id="XMLID_1317_"><g id="XMLID_1320_"><g id="XMLID_1322_"><g id="XMLID_1327_"><g id="XMLID_1328_"><g id="XMLID_1330_"><g id="XMLID_1345_"><g id="XMLID_1346_"><g id="XMLID_1347_"><circle cx="256" cy="256" fill="#fedd55" r="256"/></g></g></g></g></g></g></g></g></g></g></g></g></g></g></g></g><path d="m512 256c0-19.914-2.275-39.296-6.577-57.903l-125.694-125.694-38.652 18.58-48.265-48.032-188.358 385.535 70.363 70.363c25.511 8.525 52.806 13.151 81.183 13.151 141.385 0 256-114.615 256-256z" fill="#fcc63d"/><g><g><path d="m218.423 43.861-130.544 164.647 168.121 172.459 168.121-172.459-130.544-164.647c-19.199-24.215-55.955-24.215-75.154 0z" fill="#0768dd"/><g><g><g><path d="m424.12 208.51-41.39 42.46-126.73 130v-355.27c13.99 0 27.98 6.06 37.58 18.16l20.59 25.97 68.56 86.47z" fill="#0059b2"/></g></g></g><path d="m126.271 72.403h253.459v315.133h-253.459z" fill="#fff"/><path d="m256.005 72.403h123.724v315.14h-123.724z" fill="#eae1dc"/><path d="m256 351.293-168.121-142.785v184.905c0 25.071 20.324 45.395 45.395 45.395h245.452c25.071 0 45.395-20.324 45.395-45.395v-184.905z" fill="#238cf8"/><path d="m424.12 208.51v184.9c0 25.07-20.32 45.4-45.39 45.4h-122.73v-87.52l126.73-107.63z" fill="#0768dd"/></g><path d="m306.664 212.035c-.831 2.084-2.933 6.442-7.537 9.198-1.565.937-4.181 1.962-7.498 1.962-1.784 0-3.165-1.119-3.829-1.787-1.589-1.597-2.531-3.951-2.52-6.297l.092-18.653c.014-.496.03-.991.03-1.491 0-.314-.012-.623-.018-.934l.207-41.831-15-.074-.049 9.926c-4.845-3.455-10.645-5.395-17.057-5.395-16.68 0-33.932 14.401-33.932 38.502 0 21.971 14.921 39.845 33.261 39.845 7.744 0 14.771-3.167 20.305-8.516 1.074 2.016 2.432 3.877 4.048 5.5 3.983 4.002 9.119 6.206 14.462 6.206 15.315 0 25.009-10.65 28.973-20.617 6.1-15.333 7.195-28.262 3.549-41.918-.021-.077-.043-.155-.066-.232-5.512-18.263-17.843-33.216-34.723-42.105-16.877-8.888-36.189-10.596-54.38-4.804-17.238 5.486-31.578 17.316-40.38 33.308-8.805 15.997-11.12 34.44-6.52 51.933 7.94 30.189 35.241 51.876 66.392 52.737l7.497.207.414-14.994-7.497-.207c-24.536-.679-46.042-17.768-52.3-41.558-3.616-13.755-1.786-28.275 5.154-40.886 6.94-12.609 18.23-21.931 31.789-26.247 14.331-4.561 29.547-3.219 42.84 3.782 9.037 4.76 14.568 10.826 17.026 13.805 6.09 7.382 8.929 14.732 10.282 19.215 1.062 3.348 2.396 9.014 1.821 16.052-.616 7.528-3.137 13.202-4.836 16.368zm-53.849 7.972c-8.782 0-18.261-9.499-18.261-24.845 0-14.711 9.626-23.502 18.932-23.502 9.809 0 16.69 9.304 16.897 22.694l-.01 2.027c-.516 13.151-8.192 23.626-17.558 23.626z" fill="#ff807d"/><path d="m306.67 212.04c-.833 2.087-2.938 6.445-7.545 9.201-1.567.937-4.18 1.959-7.495 1.959-1.78 0-3.17-1.12-3.83-1.79-1.59-1.6-2.53-3.95-2.52-6.3l.31-62.91-15-.07-.05 9.93c-4.2-3-9.13-4.86-14.54-5.3v15.11c8.45 1.45 14.2 10.26 14.38 22.48l-.01 2.03c-.45 11.62-6.5 21.16-14.37 23.21v15.23c6.48-.73 12.36-3.72 17.12-8.33 1.07 2.02 2.43 3.88 4.05 5.5 3.98 4 9.12 6.21 14.46 6.21 15.32 0 25.01-10.65 28.97-20.62 6.1-15.33 7.2-28.26 3.55-41.92-.02-.08-.04-.15-.07-.23-5.51-18.26-17.84-33.22-34.72-42.11-10.46-5.51-21.87-8.26-33.36-8.17v15c9.09-.08 18.1 2.09 26.37 6.44 9.139 4.807 14.732 10.992 17.228 14.052 5.952 7.299 8.743 14.534 10.082 18.968 1 3.749 2.126 9.816 1.32 17.223-.724 6.656-2.732 11.865-4.33 15.207zm-50.67 54.5 5.97.16.42-14.99-6.39-.18z" fill="#fc3e53"/></g></g></svg>